<svg width="83" height="26" fill="none" xmlns="http://www.w3.org/2000/svg"><path d="M12.471.5A12.49 12.49 0 0 0 0 11.997l6.702 2.768a3.432 3.432 0 0 1 1.98-.62h.198l2.997-4.295v-.056A4.729 4.729 0 0 1 16.6 5.076a4.729 4.729 0 0 1 4.723 4.718A4.729 4.729 0 0 1 16.6 14.51h-.113l-4.242 3.023v.17a3.534 3.534 0 0 1-3.535 3.53c-1.725 0-3.139-1.214-3.478-2.853L.424 16.404A12.493 12.493 0 0 0 12.471 25.5c6.9 0 12.5-5.593 12.5-12.486C24.97 6.094 19.37.5 12.47.5z" fill="#F5F5F5"/><path d="M7.833 19.455l-1.527-.622c.283.565.736 1.046 1.358 1.3a2.664 2.664 0 0 0 3.478-1.44 2.544 2.544 0 0 0 0-2.035 2.763 2.763 0 0 0-1.442-1.44 2.594 2.594 0 0 0-1.951-.029l1.583.65c.99.424 1.47 1.554 1.046 2.542a1.924 1.924 0 0 1-2.545 1.074zm11.906-9.689A3.148 3.148 0 0 0 16.6 6.63a3.148 3.148 0 0 0-3.139 3.136A3.148 3.148 0 0 0 16.6 12.9a3.13 3.13 0 0 0 3.139-3.135zm-5.514 0c0-1.3 1.046-2.345 2.375-2.345 1.33 0 2.375 1.045 2.375 2.345 0 1.299-1.046 2.344-2.375 2.344-1.33 0-2.376-1.045-2.376-2.344zm24.122-.706l-.849 1.468c-.65-.452-1.527-.734-2.29-.734-.877 0-1.414.367-1.414 1.017 0 .79.961.96 2.375 1.469 1.527.536 2.404 1.186 2.404 2.57 0 1.921-1.499 2.995-3.676 2.995-1.047 0-2.347-.283-3.309-.876l.622-1.639c.792.424 1.754.679 2.602.679 1.16 0 1.697-.424 1.697-1.046 0-.706-.82-.932-2.178-1.384-1.527-.508-2.573-1.186-2.573-2.74 0-1.751 1.414-2.768 3.422-2.768 1.385.056 2.516.508 3.167.988zm6.533.932v7.711h-1.952V9.992h-2.884V8.297h7.692v1.695h-2.857zm7.013-.029v2.147h3.79v1.667h-3.79v2.232h4.383v1.694h-6.335V8.297h6.335v1.666h-4.383zm8.795 5.904l-.623 1.836h-2.064l3.535-9.406h1.98l3.62 9.406h-2.15l-.65-1.836h-3.648zm1.838-5.339l-1.301 3.757h2.602l-1.301-3.757zm14.761 1.412l-2.573 5.48h-1.131l-2.517-5.451v5.734h-1.895V8.297h1.867l3.167 6.78 3.054-6.78h1.923v9.406h-1.895v-5.762zM83 9.483c0 .82-.594 1.3-1.3 1.3-.708 0-1.302-.509-1.302-1.3 0-.82.622-1.3 1.301-1.3.679-.028 1.301.48 1.301 1.3zm-2.404 0c0 .678.481 1.102 1.075 1.102s1.075-.424 1.075-1.102c0-.678-.481-1.102-1.075-1.102s-1.075.424-1.075 1.102zm1.103-.678c.34 0 .453.17.453.367 0 .17-.114.283-.227.368l.311.565h-.254l-.255-.509h-.282v.508h-.198V8.806h.452zm-.226.593h.226c.142 0 .226-.084.226-.197s-.056-.198-.226-.198h-.226v.395z" fill="#F5F5F5"/></svg>