<svg width="79" height="26" fill="none" xmlns="http://www.w3.org/2000/svg"><path d="M62.388 1.196c-.118 1.661.394 3.245 1.928 4.057.354 1.468.433 3.052.354 4.675-.157 1.7-.393 3.4-.865 4.985l-.551.54v2.86c-.118.039-.276 0-.433.039-.04-.232 0-.503-.04-.773-.668-.039-.629.657-.707 1.12-.118 1.044-.236 2.241 0 3.285-.315-.078-.669-.116-1.023-.155l-.118-1.39c-.197-.04-.472.038-.63.154-.353.309-.432.734-.59 1.159h-.236l.119-1.97.708-.58c.078-.735.118-1.507.078-2.28l-1.337 1.43-2.557 5.139-.04.038c.394-.038.787-.154 1.18-.232.04-.154.08-.309.04-.502.118-.038.275-.077.433-.077-.512 1.623-2.282 2.512-3.895 2.627-1.298-.888-2.517-1.932-3.697-3.052-2.203-5.642-2.164-13.176-.236-18.934 0-.657.708-.116 1.062-.193 0 .387-.276.85-.669 1.043-.315.078-.315.503-.433.773-.275.966-.393 1.97-.393 3.014.983-.58 1.652-1.623 2.085-2.589l1.18.116.236 3.864c-.118.155-.472-.077-.433.232l-.315 5.371c-.118 2.318.04 4.637.197 6.878.708.116 1.416-.116 2.046-.425 3.147-1.816 3.619-5.294 4.72-8.23.826-2.744.905-5.796 1.102-8.772.314-1.236.472-2.627 1.73-3.245zM14.909 4.905h.393l.157 1.314c1.613.966 1.85 2.705 2.125 4.289 1.337-1.314 2.085-2.898 3.068-4.367.708-1.081 1.888-1.43 3.147-1.236l1.377 5.216c-.748 2.203-1.063 4.598-1.141 7.033-.157.116-.354.309-.512.309l-.117-.155-.158-6.839v-.038c-1.534.077-2.596 1.7-3.029 2.975-.787 2.125-1.337 4.366-1.77 6.684l-2.636-.772-.51-5.371c-.158-.078-.355-.039-.552-.039-.944 3.207-.826 6.878-1.691 10.124-.197.54-.433 1.12-.984 1.468-.668-1.198-1.888-2.241-1.927-3.748-.315-.116-.669-.039-1.023-.039.433-4.173.669-8.5 2.046-12.326.59.155 1.455.31 2.006-.116.708-.695.905-1.623 1.062-2.55.118-.734.236-1.43.236-2.202l-.315-.04v-.772h.708l.04 1.198zm32.295 1.623c.394.27.827.425 1.26.618.078 3.284-.158 6.453-.866 9.428l-.63.502-.118 5.449-1.062-.232c-.236-1.468-.354-3.014-.708-4.482-.747-.89-1.77-1.237-2.793-1.43.04.502.236 1.005.276 1.546-.787.154-1.574.386-2.046 1.12-.59 1.314-.433 2.937-.59 4.405-.118.58-.315 1.198-.905 1.507-.314.077-.668-.039-.904-.232-.63-.58-.945-1.275-1.141-2.048-.472-.116-.944-.27-1.416-.386l-.197-1.893c.118.038.275.038.393.038v1.082l.551-.386c.275-2.048.944-3.942.708-6.183.118-.038.236-.038.354-.038.079.116 0 .347.079.463.079.039.197 0 .315.039.039-.386.078-.85-.04-1.236-.314-.155-.708-.04-1.062 0 .59-.89 1.337-1.74 1.73-2.705l.709-5.41a.917.917 0 0 1 .315-.348c.786.039 1.77-.347 2.281.387.354 2.125-.983 3.786-.59 5.95l.118.928c.905.657 1.77 1.43 2.95 1.313.63-.463.709-1.197.787-1.932.04-2.588-.197-5.332.708-7.573.315-.077.59-.193.905-.232l.63 1.97zm31.037-2.087c-.157 0-.354-.038-.511.039l-.118 1.623h-.393c-1.574-.425-2.597-2.087-3.777-3.246-.708-.695-1.455-1.352-2.478-1.314-1.023.387-1.574 1.507-2.006 2.396-.158 0-.315-.039-.472.039-1.102.193-1.377 1.352-1.731 2.163h-.433l-.197 1.971c.158.116.472-.039.63.116.315 1.352 1.534 2.55 2.793 3.207.157.077.393.232.314.425l-7.12 8.5.236 1.701c.787.193 1.456.773 2.125 1.314 2.32-1.391 4.287-3.671 6.215-5.68.04-.155-.079-.31-.118-.425l-2.203 2.395c-.118-.116-.157-.309-.236-.425l1.102-1.197c.039-.271-.04-.541-.04-.773 1.377-1.314 2.046-2.898 2.872-4.444l.63-.039.314-.927.669.039c.472 1.39.59 2.975.668 4.52l.04 5.72c.118 0 .236.038.354-.04.157-1.081.236-2.163.432-3.245.118.039.276-.039.394.039.078 1.159.078 2.434-.118 3.555l1.73-.04.158-1.004.669-5.448c.275-3.71.826-7.998-.394-11.515zm-5.192 7.187c-1.338-.077-2.557-.54-3.305-1.7-.472-.811-.708-1.777-.51-2.782L71.2 8.962c.04-.232.04-.502 0-.773-.197-.193-.394-.27-.59-.463v-.85h.079a19.9 19.9 0 0 0 2.95 3.94c-.079.31-.276.658-.59.812zm-37.292 1.739c-.393-2.125-.786-4.25-.826-6.569-.236-2.202-.826-4.289-1.573-6.298-.984.077-2.046 0-3.03.039a29.599 29.599 0 0 1-.629 3.245l-2.32 7.844-1.023 4.482c-.158.078-.354.155-.512.155-.039-1.16 0-2.357-.039-3.516-.275.309-.59.58-.865.889-.512 3.748-.512 7.882.118 11.592 1.14-.387 2.4-.425 3.658-.503l.118-2.318.433-5.448.275-1.237c.393-.966 1.416-1.584 2.4-1.661.039.038.078.077.039.115l1.18 6.067 1.416-.85c-.078-.889-.197-1.816-.236-2.705h.079c.669.039.393.85.669 1.275.157-.077.314-.116.432-.232l-.04-4.173.276-.193zm-4.445-1.043c-.393.27-.826.348-1.259.502l.394-2.782c.354.232.747.541.865.927-.04.464.118.928 0 1.353zM3.973 15.879c.197-.116.433-.31.433-.541-.197-.387-.708-.387-1.062-.31l.039.967c.197.077.393-.078.59-.116zm.197 5.873c-.04 0-.04-.039-.04-.077l-.078-.194c-.079-.27.078-.656-.118-.888-.158-.078-.315.038-.433.077 0 .425.04.85-.236 1.16-.04-.271-.04-.542-.118-.774l-.04.04c-.196.54-.275 1.313.197 1.738.04-.116 0-.27.118-.348.04.116.079.27.079.386.04.155.157.271.315.232.275-.077.236-.386.314-.618.118.116.08.27.118.386.197-.193.276-.386.354-.618.04-.463.08-1.043-.275-1.39.04.386-.04.656-.157.888zM7.513 2.857c-.236-.502-.786-.927-1.337-1.043l-4.72-.039-.433.155C.51 2.162.079 2.625 0 3.166v20.286c.118.618.669 1.198 1.298 1.314h4.878c.63-.077 1.22-.58 1.377-1.198l.039-20.131-.079-.58zm-4.327 7.226c-.039-.155-.196-.232-.314-.27l-.04.076c0 .58 0 1.16-.078 1.7V9.31c.157-.154.55-.154.708 0h1.337c0 .31-.04.658.04.967-.08-.541-.709-.387-1.102-.387l-.079.078v2.936c.079.078.079.194.197.232h-1.18c0-.038-.04-.077-.04-.077.276-.039.551-.232.63-.502-.118-.812 0-1.662-.079-2.473zm1.652 4.714c.197.193.276.425.315.657-.04.386-.118.734-.433.966-.354.309-.826.347-1.298.386l-.118 1.391c-.078.077-.236.039-.354.039l-.04-.078v-3.09c-.117-.117-.432-.194-.392-.426.747.078 1.573 0 2.32.155zm-.118 8.54c-.354.424-.865.579-1.376.386-.787-.425-.866-1.314-.826-2.164.078-.58.196-1.275.826-1.507.59-.193 1.258.077 1.534.618.393.773.354 1.932-.158 2.666zm.551-18.703a.534.534 0 0 0-.118-.154c-.157-.077-.236.077-.275.193l-.079 2.434c-.04.078-.079.194-.118.31l-.04-2.01c-.039-.116-.196-.193-.275-.116-.786.734-1.455 1.585-2.202 2.28h-.08c-.078-1.198-.038-2.473-.038-3.71.157-.231.668-.193.826-.038.039.502-.118 1.12.275 1.468.275-.038.354-.309.511-.502.197-.31.354-.695.63-.966h.904c.118.232.04.541.08.811z" fill="#F5F5F5"/></svg>