<svg width="122" height="26" fill="none" xmlns="http://www.w3.org/2000/svg"><g clip-path="url(#clip0_1406_123)"><path d="M35.642.5v25H122V.5H35.642z" fill="#000"/><path d="M0 .5v25h35.642V.5H0z" fill="#474747"/><path d="M28.477 23.152c1.365-.292 2.597-.945 3.474-1.84.69-.703 1.222-1.992 1.277-2.13l-3.623-2.065-.46.704c-.554.85-1.237 1.391-2.443 1.604-1.94.341-3.495-.306-4.202-1.752-.874-1.784-.89-7.128-.027-9.011.59-1.289 1.688-1.91 3.377-1.91 1.582 0 2.724.588 3.287 1.692l.311.61.565-.342c.865-.524 1.09-.656 2.28-1.34l1.105-.634-.319-.625c-.449-.88-1.57-2.031-2.486-2.552-2.274-1.294-6.474-1.408-9.04-.244-.945.429-2.07 1.425-2.672 2.367-1.056 1.654-1.594 4.732-1.45 8.308.135 3.399.681 5.356 1.918 6.87 1.41 1.728 3.366 2.486 6.425 2.49.964.003 2.18-.088 2.703-.2zm20.375-.012c2.927-.62 4.65-2.313 5.457-5.366.232-.877.337-1.865.399-3.744l.083-2.554h-9.507v3.34h5.042c.024.972-.213 1.936-.569 2.834-.804 1.619-2.774 2.3-4.859 1.681-1.252-.371-2.015-1.372-2.351-3.078-.268-1.363-.128-6.31.204-7.188.612-1.618 1.684-2.31 3.582-2.313 1.722-.002 2.716.739 3.428 1.77l.25.363 3.815-2.16-.37-.73c-.788-1.555-2.528-2.78-4.578-3.223-1.282-.278-4.036-.24-5.323.071-2.807.681-4.543 2.572-5.244 5.712-.379 1.697-.373 7.247.01 8.873.751 3.2 2.547 5.07 5.48 5.706 1.275.277 3.76.28 5.051.007zM2.288 2.787v20.35h4.27v-6.63h2.249c2.428-.004 3.868-.228 4.909-.758 1.411-.72 2.364-1.98 2.83-3.75.28-1.06.328-3.763.086-4.835-.511-2.264-2.102-3.785-4.413-4.22-.452-.085-2.87-.157-5.376-.157H2.288zm4.27 3.782h2.887c1.188 0 1.717.14 2.097.42.72.527.963 1.202.963 2.657s-.244 2.13-.963 2.659c-.38.279-1.16.419-2.097.419H6.558V6.569zm53.327-3.782l-6.148 20.35h4.184l.868-3.125h6.729l.896 3.125h4.375l-6.243-20.35h-4.661zm2.368 6.007l.015.019 2.087 7.212-4.418-.014 2.316-7.217zm13.216 1.858l4 12.486h2.8l3.971-12.792.08 12.792h4.114V2.788H84.99l-3.975 12.858-3.922-12.859h-5.57l.107 20.351h3.712l.127-12.486zm28.842 8.598h-8.387v-4.572h7.93v-3.964h-7.93V6.751h8.387V2.787H91.654l.102 20.351h12.555v-3.887zm1.071-16.463l-.014 20.35h4.203l.086-6.793h2.593l2.868 6.793h4.442l-3.04-7.331c2.948-2.046 3.235-3.955 3.173-7.608-.174-2.21-1.015-3.71-2.549-4.544-1.355-.737-2.39-.864-7.301-.867h-4.461zm4.266 3.81h3.262c1.395 0 1.819.17 2.304 1.144.429.863.424 2.994-.01 3.744-.514.89-1.016 1.058-2.294 1.058h-3.262V6.598z" fill="#F5F5F5"/><path d="M119.561 3.854c.368-.367.38-.513.066-.827-.469-.469-1.133-.194-1.133.47 0 .305.335.645.648.658.063.002.252-.133.419-.3z" fill="#000"/><path d="M118.656 3.53c-.013-.33.386-.647.674-.536.127.049.222.245.213.436-.014.262-.035.281-.088.08-.038-.148-.144-.223-.234-.167-.098.06-.121.03-.056-.075.06-.097.034-.176-.058-.176-.091 0-.228.155-.304.343-.093.232-.14.263-.147.095z" fill="#000"/><path d="M119.185 2.914a.68.68 0 0 1 .497.207.68.68 0 0 1 .208.498c0 .194-.069.36-.207.499a.678.678 0 0 1-.498.208.681.681 0 0 1-.5-.208.678.678 0 0 1-.208-.499c0-.194.069-.36.208-.498a.681.681 0 0 1 .5-.207zm-.002 1.296c.161 0 .3-.058.416-.174a.568.568 0 0 0 .174-.417c0-.162-.058-.3-.174-.416a.567.567 0 0 0-.416-.172.567.567 0 0 0-.416.172.568.568 0 0 0-.173.416.57.57 0 0 0 .173.417.566.566 0 0 0 .416.174zm.329-.2h-.149c-.095-.171-.156-.268-.185-.29a.174.174 0 0 0-.108-.032h-.073v.322h-.123v-.759h.263c.079 0 .139.006.182.017a.197.197 0 0 1 .142.188.21.21 0 0 1-.056.142.227.227 0 0 1-.161.07v.005c.045.01.104.073.177.19l.091.147zm-.515-.427h.149c.069 0 .117-.01.144-.03a.102.102 0 0 0 .04-.085.1.1 0 0 0-.039-.084c-.026-.02-.077-.03-.154-.03h-.14v.229z" fill="#F5F5F5"/></g><defs><clipPath id="clip0_1406_123"><path fill="#fff" transform="translate(0 .5)" d="M0 0h122v25H0z"/></clipPath></defs></svg>