<svg width="96" height="30" fill="none" xmlns="http://www.w3.org/2000/svg"><path d="M95.64 7.588a1.665 1.665 0 0 0-1.294-.61h-5.892a1.683 1.683 0 0 0-1.064.37c-.301.242-.508.58-.585.956l-.548 3.362a10.31 10.31 0 0 0-2.265-.236h-.315l.364-2.473a1.641 1.641 0 0 0-.344-1.38 1.67 1.67 0 0 0-1.295-.608h-5.888c-.385 0-.759.132-1.058.373a1.654 1.654 0 0 0-.58.952l-.141.692a5.178 5.178 0 0 0-1.421-1.398 6.233 6.233 0 0 0-3.395-.917 7.294 7.294 0 0 0-3.113.677 1.678 1.678 0 0 0-1.077-.394H41.933a1.686 1.686 0 0 0-1.401.73l-.049.072a1.665 1.665 0 0 0-1.426-.792H33.68c.432 0-2.197-2.401-3.933-2.714-1.736-.312-2.201-3.016-4.291-3.035-.684 0-1.29.413-1.964.48.698.188 2.696.817 1.358 1.667-1.038.658-2.25-.096-2.934-.865-1.513-1.7-3.191-2.66-5.543-1.92.79.143 3.88 1.57 1.784 2.127-1.028.269-1.79-.48-2.458-1.138C14.858.749 14.3.408 13.094.48a9.435 9.435 0 0 1-1.562.058A4.146 4.146 0 0 1 10.062 0a1.356 1.356 0 0 0 .156 1.148c.267.365.688.293 1.033.523.97.634-.282 1.398-.936 1.364a1.409 1.409 0 0 1-1.027-.386 1.383 1.383 0 0 1-.428-1.002c-.315 1.066-.485 1.576.175 2.426.31.393.945 1.306-.054 1.22-.897-.077-.524-1.22-1.125-1.605-1.018-.648-2.425.558-2.623 1.494C6.77 3.91 8.52 6.032 6.877 6.59a2.236 2.236 0 0 1-1.692-.047A2.204 2.204 0 0 1 4.02 5.326c.451.96.078 1.83 1.411 2.094.931.187 2.11-.226 2.91.456.94.812-.15 2.402-1.256 2.123-1.188-.269-1.64-2.041-2.91-2.127-.994-.068-1.75 1.253-2.284 1.882.97-.658 1.838-.912 2.624.091.393.505.616 1.076 1.15 1.465.533.39.896.418 1.454.783 1.314.913-.344 1.44-1.329.96-1.13-.58-1.168-1.613-2.604-1.647C1.94 11.353 0 12.304 0 12.304s2.575-.077 3.676.548a1.6 1.6 0 0 1 .742.84c.137.358.139.754.005 1.115-.286.715-1.877 1.292-2.381.657a.814.814 0 0 1 .431-1.368c-.606-.106-1.79.053-1.455 1.772.248 1.36 1.94 1.297 3.002 1.076.97-.207 2.667-.87 2.551.643a1.163 1.163 0 0 1-.617 1.09 1.193 1.193 0 0 1-1.26-.081c-1.033-.562-2.066-1.162-3.05-.096.883 0 2.066.26 2.39 1.172a.952.952 0 0 1-.455 1.244.977.977 0 0 1-.475.1c-.655.034-1.058-.648-.834-1.522a1.488 1.488 0 0 0-.175 1.988c.81.96 4.772-.134 4.01 1.086-.213.35-.814.307-1.144.437-1.135.442-.858 1.335 0 1.978-.039-1.92 2.536-.826 3.477-.288 1.819 1.042-1.343 1.979-2.303.423.751 2.588 3.394 2.425 5.334 1.301a3.758 3.758 0 0 1 2.769-.58c.805.167 1.94.83.78 1.44a4.086 4.086 0 0 1-3.04 0c.761 1.052 1.736 1.883 3.099 1.95 1.576.082 2.968-.917 4.447-1.282.485-.125 3.264-.442 2.211.686-.708.764-2.425.567-3.341.385a4.133 4.133 0 0 0 4.917.322c.728-.428 1.499-1.086 2.425-1.01.926.078.267.712-.32 1.216a6.32 6.32 0 0 0 2.784-.648 4.482 4.482 0 0 0 1.532-1.83 17.376 17.376 0 0 0 1.363-4.601c1.94-.163 3.952-.029 5.906-.029a1.686 1.686 0 0 0 1.387-.73v-.029c.033.053.07.103.112.149a1.665 1.665 0 0 0 1.294.61h12.444a1.688 1.688 0 0 0 1.057-.375c.299-.241.504-.577.582-.95l1.324-6.6h2.07L55.027 25.56a1.643 1.643 0 0 0 .344 1.379 1.671 1.671 0 0 0 1.296.609h5.892c.384 0 .757-.132 1.056-.373a1.66 1.66 0 0 0 .583-.948l.81-3.89a6.49 6.49 0 0 0 2.298.39 7.758 7.758 0 0 0 5.03-1.74c.032.318.159.618.363.865a1.68 1.68 0 0 0 1.295.61h17.831a1.679 1.679 0 0 0 1.639-1.325L95.966 9.01a1.628 1.628 0 0 0-.345-1.379" fill="#0D0802"/><path d="M47.69 8.669l-2.503 12.127h-5.378l1.169-5.677h-.117l-3.86 5.677h-5.824l2.502-12.127h5.378L37.89 14.33h.116l3.909-5.662h5.775zm11.371 0l-.907 4.202h-4.306l-1.595 7.925h-5.897l2.502-12.127h10.203zm15.072 4.298c0 2.408-.646 4.356-1.94 5.845a6.126 6.126 0 0 1-2.165 1.67 6.184 6.184 0 0 1-2.684.568 4.775 4.775 0 0 1-1.755-.298 2.898 2.898 0 0 1-1.61-1.508l-1.421 6.637H56.68l3.56-17.236h5.47l-.422 2.065h.097a5.235 5.235 0 0 1 1.974-1.763 5.563 5.563 0 0 1 2.54-.58 4.518 4.518 0 0 1 2.503.648c1.154.755 1.731 2.074 1.731 3.957v-.005zm-7.463-.658c-.32.002-.63.112-.878.312a2.67 2.67 0 0 0-.737 1.028 5.96 5.96 0 0 0-.514 2.454 1.428 1.428 0 0 0 .374 1.086.973.973 0 0 0 .703.254c.294.008.582-.082.82-.254.365-.284.648-.658.819-1.086a7.78 7.78 0 0 0 .364-1.205c.092-.41.142-.829.15-1.249a1.341 1.341 0 0 0-.422-1.133m20.654 1.412c-.796-.898-2.13-1.167-4.001-1.167-.14 0-.485 0-1.1.057-.617.058-1.02.058-1.286.058l.795-4.212h-5.897l-2.502 12.132h7.725c2.28 0 4.7-.6 5.82-1.806a4.348 4.348 0 0 0 1.241-3.084 2.662 2.662 0 0 0-.795-1.978zm-5.674 3.52a2.098 2.098 0 0 1-1.455.48h-.485l.563-2.732h.484c.305-.015.608.04.888.158a.953.953 0 0 1 .538.96 1.49 1.49 0 0 1-.523 1.148" fill="#F5F5F5"/><path d="M88.454 8.669l-.762 3.679a3.885 3.885 0 0 1 1.78 1.123c.563.65.862 1.484.839 2.34a4.806 4.806 0 0 1-1.31 3.361 5.646 5.646 0 0 1-2.749 1.638h5.591l2.503-12.127-5.892-.014zm-70.952 2.536a4.895 4.895 0 0 0-1.305-2.363c-1.154-1.263-2.032-1.667-1.58-1.921a9.593 9.593 0 0 1 1.968-.884c1.11-.38 1.382-.408 1.794.158.413.567 1.736 2.527 1.567 3.684-.17 1.158-.703.999-.703.999l-1.741.327zm3.229-.346a4.916 4.916 0 0 0 .762-2.589c.087-1.7-.248-2.598.257-2.464a9.556 9.556 0 0 1 2.012.754c1.053.505 1.27.678 1.154 1.37-.116.69-.577 3-1.518 3.697-.94.697-1.217.216-1.217.216l-1.45-.984zm2.546 2.012a4.99 4.99 0 0 0 2.386-1.292c1.276-1.143 1.683-2.012 1.94-1.566.372.617.673 1.273.897 1.955.383 1.095.412 1.369-.165 1.777-.577.408-2.55 1.72-3.714 1.551-1.164-.168-1.01-.7-1.01-.7l-.334-1.725zm.335 3.199a5.003 5.003 0 0 0 2.609.74c1.717.086 2.628-.246 2.492.254a9.543 9.543 0 0 1-.76 2.007c-.515 1.042-.685 1.259-1.383 1.143-.698-.115-3.03-.552-3.739-1.484-.708-.931-.213-1.2-.213-1.2l.994-1.46zm-2.037 2.507a4.895 4.895 0 0 0 1.305 2.362c1.154 1.264 2.032 1.672 1.58 1.922-.62.367-1.28.663-1.968.883-1.11.384-1.387.413-1.795-.158-.407-.572-1.736-2.526-1.57-3.679.164-1.153.707-1.004.707-1.004l1.741-.326zm-3.23.35a4.86 4.86 0 0 0-.761 2.584c-.087 1.7.247 2.603-.257 2.469a9.379 9.379 0 0 1-2.027-.76c-1.057-.503-1.27-.676-1.154-1.368.116-.692.577-2.997 1.518-3.698.94-.701 1.217-.211 1.217-.211l1.464.984zm-2.531-2.017a4.99 4.99 0 0 0-2.386 1.292c-1.275 1.143-1.683 2.012-1.94 1.566a9.3 9.3 0 0 1-.897-1.955c-.383-1.095-.412-1.369.16-1.777.572-.408 2.556-1.715 3.72-1.551 1.164.163 1.008.701 1.008.701l.335 1.724zm-.349-3.198a5 5 0 0 0-2.61-.745c-1.72-.082-2.628.245-2.492-.25a9.334 9.334 0 0 1 .762-2.007c.485-1.047.683-1.258 1.382-1.143.698.115 3.011.557 3.739 1.48.727.921.213 1.2.213 1.2l-.994 1.465z" fill="#F5F5F5"/><path d="M17.036 9.332a16.31 16.31 0 0 0-1.518-1.725c-.485-.413-.567-.48-.431-.552.135-.072.582.327 1.037.855a32.273 32.273 0 0 1 1.077 1.354l-.165.068zm4.704-.125c.107-.756.16-1.518.16-2.282-.077-.643-.077-.725.087-.682.165.044.18.64.126 1.336-.053.696-.203 1.71-.203 1.71l-.17-.082zm3.414 3.208a15.997 15.997 0 0 0 1.741-1.503c.417-.48.485-.558.558-.428.072.13-.33.562-.864 1.042-.533.48-1.372 1.057-1.372 1.057l-.063-.168zm.121 4.658c.763.107 1.533.16 2.304.159.65-.063.732-.067.698.086-.034.154-.645.178-1.343.125-.699-.053-1.717-.206-1.717-.206l.058-.164zm-3.235 3.381c.464.61.97 1.186 1.514 1.725.485.413.562.48.431.552-.13.072-.582-.331-1.037-.855-.456-.523-1.077-1.354-1.077-1.354l.17-.067zm-4.703.121a16.26 16.26 0 0 0-.16 2.28c.058.644.063.726-.088.692-.15-.033-.179-.638-.126-1.33.054-.691.204-1.714.204-1.714l.17.072zm-3.414-3.209a16.58 16.58 0 0 0-1.741 1.504c-.417.48-.485.557-.558.427-.073-.13.33-.567.863-1.047.534-.48 1.368-1.07 1.368-1.07l.068.186zm-.126-4.653a15.852 15.852 0 0 0-2.299-.159c-.65.058-.732.063-.703-.091.029-.154.65-.173 1.348-.12.698.053 1.726.201 1.726.201l-.072.169z" fill="#0D0802"/><path d="M23.277 20.651a6.97 6.97 0 0 1-7.69-.136 6.866 6.866 0 0 1-2.493-3.122 6.791 6.791 0 0 1-.32-3.968 6.836 6.836 0 0 1 1.96-3.475 6.944 6.944 0 0 1 3.58-1.81 6.982 6.982 0 0 1 3.992.466 6.902 6.902 0 0 1 3.056 2.584 6.798 6.798 0 0 1 .934 5.158 6.854 6.854 0 0 1-3.019 4.303z" fill="#F5F5F5"/><path d="M23.006 20.262a6.491 6.491 0 0 1-7.16-.127 6.394 6.394 0 0 1-2.322-2.907 6.326 6.326 0 0 1-.3-3.694 6.367 6.367 0 0 1 1.824-3.236A6.468 6.468 0 0 1 18.38 8.61a6.502 6.502 0 0 1 3.717.43 6.429 6.429 0 0 1 2.848 2.404 6.336 6.336 0 0 1 .872 4.806 6.388 6.388 0 0 1-2.811 4.011z" fill="#1D1D1B"/><path d="M30.73 10.086l-.76 3.414c.11.796.128 1.602.053 2.402l1.358-6.105c.033-.158.054-.318.063-.48-.163.3-.4.555-.689.74l-.024.029zm-3.054 13.735l.077.125c.154.24.254.507.296.788 0-.072.039-.144.053-.217l1.358-6.108a10.341 10.341 0 0 1-1.062 2.151l-.722 3.261zm-3.371 2.113l-3.292-.72c-.804.111-1.618.13-2.425.053l6.173 1.345c.072.017.145.03.218.038a1.99 1.99 0 0 1-.596-.59l-.078-.126zm4.074-19.071l.233-.14c.186-.12.393-.206.61-.254l-6.144-1.34c.763.268 1.492.62 2.173 1.052l3.128.682zm-16.925-.821l-.077-.125a1.91 1.91 0 0 1-.296-.788l-.058.216-1.358 6.11a10.67 10.67 0 0 1 1.062-2.147l.727-3.266zM8.472 19.465l.689-3.098a10.131 10.131 0 0 1-.054-2.4L7.76 20.05c.136-.173.3-.322.485-.442l.228-.144zM14.82 3.91l3.297.72a10.41 10.41 0 0 1 2.425-.053l-6.178-1.345a1.733 1.733 0 0 0-.218-.038c.239.152.442.354.596.59l.078.125zm-4.399 19.018c-.29.186-.624.292-.97.307.147.059.298.105.452.14l6.149 1.359a10.489 10.489 0 0 1-2.168-1.052l-3.463-.754z" fill="#F5F5F5"/><path d="M28.05 24.734a2.006 2.006 0 0 0-.297-.788l-.077-.125-.873-1.35a10.34 10.34 0 0 0 2.657-4.062 10.277 10.277 0 0 0-.175-7.42l1.456-.918h.024a1.963 1.963 0 0 0 .5-2.876 2.016 2.016 0 0 0-2.042-.712 1.877 1.877 0 0 0-.611.24l-.223.14-1.295.821a10.414 10.414 0 0 0-4.016-2.545 10.522 10.522 0 0 0-2.546-.552 10.429 10.429 0 0 0-2.424.052c-.83.114-1.645.325-2.425.63l-.873-1.35-.077-.125a1.995 1.995 0 0 0-1.049-.81 2.016 2.016 0 0 0-1.33.02 1.993 1.993 0 0 0-1.021.844 1.963 1.963 0 0 0 .034 2.078l.078.125.873 1.35a10.587 10.587 0 0 0-1.6 1.92c-.434.675-.79 1.395-1.063 2.148a10.427 10.427 0 0 0-.504 4.922c.109.782.307 1.55.592 2.287l-1.28.811-.224.144a1.974 1.974 0 0 0-.835 2.276c.136.416.408.777.773 1.024.366.247.804.367 1.245.34.346-.014.68-.12.97-.307l1.455-.917a10.542 10.542 0 0 0 4.176 2.717 10.63 10.63 0 0 0 7.395-.124l.887 1.292.083.125a2.016 2.016 0 0 0 2.378.79 1.993 1.993 0 0 0 1.022-.843 1.97 1.97 0 0 0 .261-1.292v.02zm-4.884-.548a9.968 9.968 0 0 1-3.957.653 10.038 10.038 0 0 1-6.92-3.093 10.299 10.299 0 0 1-2.134-3.362 9.827 9.827 0 0 1-.108-6.603 9.933 9.933 0 0 1 4.104-5.206 10.107 10.107 0 0 1 5.746-1.556c1.212.047 2.406.308 3.526.768A9.947 9.947 0 0 1 28 9.605c.34.525.63 1.082.863 1.662a9.802 9.802 0 0 1 .717 4.02 9.93 9.93 0 0 1-.775 3.487 9.837 9.837 0 0 1-2.265 3.28 9.727 9.727 0 0 1-1.576 1.234 9.884 9.884 0 0 1-1.79.898" fill="#F5F5F5"/><path d="M30.401 9.605a1.465 1.465 0 0 1-1.623-.019 1.443 1.443 0 0 1-.527-.657 1.427 1.427 0 0 1 .348-1.57 1.46 1.46 0 0 1 1.599-.274c.264.116.486.308.64.551a1.43 1.43 0 0 1-.437 1.97zM8.598 20.041a1.465 1.465 0 0 1 2.15.677 1.428 1.428 0 0 1-.347 1.57 1.46 1.46 0 0 1-1.6.274 1.45 1.45 0 0 1-.64-.552 1.429 1.429 0 0 1 .437-1.969zm16.226 5.687a1.431 1.431 0 0 1 .684-2.13 1.468 1.468 0 0 1 1.585.345 1.436 1.436 0 0 1 .276 1.583 1.444 1.444 0 0 1-.556.634 1.467 1.467 0 0 1-1.989-.432zM14.301 4.135a1.431 1.431 0 0 1-.017 1.609 1.468 1.468 0 0 1-2.25.178 1.436 1.436 0 0 1-.275-1.586c.118-.262.313-.482.559-.633a1.467 1.467 0 0 1 1.983.432z" fill="#0D0802"/><path d="M30.212 9.327a1.08 1.08 0 0 1-1.188-.038 1.052 1.052 0 0 1-.114-1.635 1.076 1.076 0 0 1 1.641.203 1.05 1.05 0 0 1-.324 1.47" fill="#F5F5F5"/><path d="M30.125 9.039l.058.048a.694.694 0 0 0 .13-.135.837.837 0 0 0 .098-.168l-.068-.038a.566.566 0 0 1-.116-.793l.053-.062a.724.724 0 0 0-.14-.13 1.128 1.128 0 0 0-.166-.096.573.573 0 0 1-.844.183l-.058-.048a.694.694 0 0 0-.13.134.842.842 0 0 0-.098.168l.068.038a.565.565 0 0 1 .117.793l-.054.062c.036.047.077.09.122.13.052.037.107.069.165.096l.043-.067a.573.573 0 0 1 .8-.115" fill="#0D0802"/><path d="M13.67 5.797a1.085 1.085 0 0 1-1.582-.509 1.057 1.057 0 0 1 .255-1.157 1.08 1.08 0 0 1 1.177-.21 1.057 1.057 0 0 1 .151 1.866" fill="#F5F5F5"/><path d="M13.578 5.509a.337.337 0 0 1 .064.052 1.21 1.21 0 0 0 .13-.139c.037-.053.07-.11.097-.168l-.067-.038a.566.566 0 0 1-.064-.855.843.843 0 0 0-.31-.226.308.308 0 0 1-.039.067.573.573 0 0 1-.78.12l-.063-.048a.862.862 0 0 0-.131.135.837.837 0 0 0-.097.168l.068.038a.566.566 0 0 1 .067.855.7.7 0 0 0 .136.13c.054.037.11.069.17.096a.304.304 0 0 1 .039-.067.573.573 0 0 1 .78-.12z" fill="#0D0802"/><path d="M9.932 22.174a1.08 1.08 0 0 1-1.577-.507 1.052 1.052 0 0 1 .256-1.152 1.075 1.075 0 0 1 1.173-.207 1.058 1.058 0 0 1 .148 1.866z" fill="#F5F5F5"/><path d="M9.84 21.886a.332.332 0 0 1 .063.053.9.9 0 0 0 .227-.303l-.067-.024a.566.566 0 0 1-.063-.855 1.205 1.205 0 0 0-.141-.13 1.183 1.183 0 0 0-.17-.096.306.306 0 0 1-.039.068.567.567 0 0 1-.599.211.57.57 0 0 1-.2-.096l-.064-.048a1.152 1.152 0 0 0-.13.134 1.16 1.16 0 0 0-.098.168l.068.039a.565.565 0 0 1 .053.835c.04.048.086.092.136.13.053.038.11.07.17.096a.305.305 0 0 1 .039-.067.573.573 0 0 1 .8-.115" fill="#0D0802"/><path d="M26.614 25.858a1.08 1.08 0 0 1-1.19-.03 1.064 1.064 0 0 1-.43-1.098 1.076 1.076 0 0 1 2.101.045 1.052 1.052 0 0 1-.481 1.083z" fill="#F5F5F5"/><path d="M26.526 25.564l.059.053a.94.94 0 0 0 .135-.139.782.782 0 0 0 .093-.163.485.485 0 0 1-.063-.044.56.56 0 0 1-.122-.777l.054-.058a.728.728 0 0 0-.141-.13.818.818 0 0 0-.165-.096.573.573 0 0 1-.844.183l-.058-.053a.727.727 0 0 0-.13.14.804.804 0 0 0-.098.162l.068.044a.566.566 0 0 1 .116.768l-.053.058a.9.9 0 0 0 .306.225l.043-.067a.579.579 0 0 1 .8-.115" fill="#0D0802"/><path d="M15.164 10.84l2.061.052c1.004.03 1.654.212 1.94.558a1.5 1.5 0 0 1 .315.802c.02.292.02.586 0 .878v.678c.008.324-.035.648-.126.96-.208.562-.785.831-1.736.807h-.553l-.082 3.14-2.047-.052.228-7.823zm2.008 1.383l-.053 1.974h.155a.44.44 0 0 0 .436-.192c.064-.153.094-.316.087-.48v-.64a.69.69 0 0 0-.116-.513.767.767 0 0 0-.524-.14m7.532 2.248l-2.047-.072.039-1.354v-.558c-.039-.22-.15-.33-.34-.336-.189-.005-.334.106-.388.346 0 .048 0 .25-.029.59l-.102 3.641v.577c.04.23.156.345.35.35.194.005.32-.12.368-.375 0-.052 0-.259.03-.605v-.96l2.046.053v.302c.005.484-.043.967-.14 1.441a1.832 1.832 0 0 1-.888 1.143c-.445.24-.95.352-1.455.322-1.237-.029-1.974-.48-2.226-1.278a5.665 5.665 0 0 1-.14-1.714l.116-2.281c.002-.361.023-.722.063-1.081a2.03 2.03 0 0 1 .397-.985 2.314 2.314 0 0 1 2.003-.788c.46.007.914.111 1.329.308a1.62 1.62 0 0 1 .902.96c.135.527.184 1.072.145 1.614l-.034.74z" fill="#F5F5F5"/></svg>